<svg width="96" height="96" viewBox="0 0 96 96" fill="none" xmlns="http://www.w3.org/2000/svg">
<path d="M73.5 1.5H22.5C19.191 1.5 16.5 4.191 16.5 7.5V88.5C16.5 91.809 19.191 94.5 22.5 94.5H73.5C76.809 94.5 79.5 91.809 79.5 88.5V7.5C79.5 4.191 76.809 1.5 73.5 1.5ZM76.5 88.5C76.5 90.1545 75.1545 91.5 73.5 91.5H22.5C20.8455 91.5 19.5 90.1545 19.5 88.5V7.5C19.5 5.8455 20.8455 4.5 22.5 4.5H73.5C75.1545 4.5 76.5 5.8455 76.5 7.5V88.5Z" fill="white"/>
<path d="M66 7.5H30C25.8645 7.5 22.5 10.8645 22.5 15V39C22.5 43.1355 25.8645 46.5 30 46.5H66C70.1355 46.5 73.5 43.1355 73.5 39V15C73.5 10.8645 70.1355 7.5 66 7.5ZM70.5 39C70.5 41.481 68.481 43.5 66 43.5H30C27.519 43.5 25.5 41.481 25.5 39V15C25.5 12.519 27.519 10.5 30 10.5H66C68.481 10.5 70.5 12.519 70.5 15V39Z" fill="white"/>
<path d="M64.5 13.5H67.5V16.5H64.5V13.5Z" fill="white"/>
<path d="M64.5 19.5H67.5V22.5H64.5V19.5Z" fill="white"/>
<path d="M64.5 25.5H67.5V28.5H64.5V25.5Z" fill="white"/>
<path d="M64.5 31.5H67.5V34.5H64.5V31.5Z" fill="white"/>
<path d="M64.5 37.5H67.5V40.5H64.5V37.5Z" fill="white"/>
<path d="M57 13.5H33C30.519 13.5 28.5 15.519 28.5 18V36C28.5 38.481 30.519 40.5 33 40.5H57C59.481 40.5 61.5 38.481 61.5 36V18C61.5 15.519 59.481 13.5 57 13.5ZM58.5 36C58.5 36.8265 57.828 37.5 57 37.5H33C32.172 37.5 31.5 36.8265 31.5 36V18C31.5 17.1735 32.172 16.5 33 16.5H57C57.828 16.5 58.5 17.1735 58.5 18V36Z" fill="white"/>
<path d="M72 70.5H24C23.1705 70.5 22.5 71.1705 22.5 72V87C22.5 87.8295 23.1705 88.5 24 88.5H72C72.8295 88.5 73.5 87.8295 73.5 87V72C73.5 71.1705 72.8295 70.5 72 70.5ZM70.5 85.5H25.5V73.5H70.5V85.5Z" fill="white"/>
<path d="M39 82.5C39 83.3295 39.6705 84 40.5 84H55.5C56.3295 84 57 83.3295 57 82.5V78H67.5V75H28.5V78H39V82.5ZM54 81H42V78H54V81Z" fill="white"/>
<path d="M28.5 49.5H31.5V52.5H28.5V49.5Z" fill="white"/>
<path d="M28.5 55.5H31.5V58.5H28.5V55.5Z" fill="white"/>
<path d="M28.5 61.5H31.5V64.5H28.5V61.5Z" fill="white"/>
<path d="M34.5 49.5H37.5V52.5H34.5V49.5Z" fill="white"/>
<path d="M34.5 55.5H37.5V58.5H34.5V55.5Z" fill="white"/>
<path d="M34.5 61.5H37.5V64.5H34.5V61.5Z" fill="white"/>
<path d="M40.5 49.5H43.5V52.5H40.5V49.5Z" fill="white"/>
<path d="M40.5 55.5H43.5V58.5H40.5V55.5Z" fill="white"/>
<path d="M40.5 61.5H43.5V64.5H40.5V61.5Z" fill="white"/>
<path d="M46.5 49.5H49.5V52.5H46.5V49.5Z" fill="white"/>
<path d="M46.5 55.5H49.5V58.5H46.5V55.5Z" fill="white"/>
<path d="M46.5 61.5H49.5V64.5H46.5V61.5Z" fill="white"/>
<path d="M52.5 52.5H55.5V63C55.5 63.8295 56.1705 64.5 57 64.5H58.5C58.899 64.5 59.28 64.3425 59.5605 64.0605L60 63.621L60.4395 64.0605C61.026 64.647 61.974 64.647 62.5605 64.0605L63 63.621L63.4395 64.0605C64.026 64.647 64.974 64.647 65.5605 64.0605L66 63.621L66.4395 64.0605C66.72 64.3425 67.101 64.5 67.5 64.5H69C69.8295 64.5 70.5 63.8295 70.5 63V52.5H73.5V49.5H52.5V52.5ZM67.5 60.879L67.0605 60.4395C66.474 59.853 65.526 59.853 64.9395 60.4395L64.5 60.879L64.0605 60.4395C63.474 59.853 62.526 59.853 61.9395 60.4395L61.5 60.879L61.0605 60.4395C60.474 59.853 59.526 59.853 58.9395 60.4395L58.5 60.879V52.5H67.5V60.879Z" fill="white"/>
</svg>
