<svg width="96" height="96" viewBox="0 0 96 96" fill="none" xmlns="http://www.w3.org/2000/svg">
<path d="M94.0607 46.9395L49.0607 1.9395C48.7794 1.65829 48.3979 1.50032 48.0002 1.50032C47.6024 1.50032 47.221 1.65829 46.9397 1.9395L1.9397 46.9395C1.72998 47.1493 1.58717 47.4165 1.52932 47.7075C1.47147 47.9984 1.50117 48.2999 1.61468 48.574C1.72818 48.848 1.92039 49.0823 2.16701 49.2471C2.41362 49.4119 2.70357 49.4999 3.0002 49.5H10.5002V85.5H9.0002C8.60237 85.5 8.22084 85.658 7.93954 85.9393C7.65823 86.2206 7.5002 86.6022 7.5002 87V93C7.5002 93.3978 7.65823 93.7794 7.93954 94.0607C8.22084 94.342 8.60237 94.5 9.0002 94.5H87.0002C87.398 94.5 87.7796 94.342 88.0609 94.0607C88.3422 93.7794 88.5002 93.3978 88.5002 93V87C88.5002 86.6022 88.3422 86.2206 88.0609 85.9393C87.7796 85.658 87.398 85.5 87.0002 85.5H85.5002V49.5H93.0002C93.2968 49.4999 93.5868 49.4119 93.8334 49.2471C94.08 49.0823 94.2722 48.848 94.3857 48.574C94.4992 48.2999 94.5289 47.9984 94.4711 47.7075C94.4132 47.4165 94.2704 47.1493 94.0607 46.9395ZM85.5002 91.5H10.5002V88.5H85.5002V91.5ZM40.5002 85.5H22.5002V58.5H40.5002V85.5ZM43.5002 85.5V57C43.5002 56.6022 43.3422 56.2206 43.0609 55.9393C42.7796 55.658 42.398 55.5 42.0002 55.5H21.0002C20.6024 55.5 20.2208 55.658 19.9395 55.9393C19.6582 56.2206 19.5002 56.6022 19.5002 57V85.5H13.5002V48.621L48.0002 14.121L82.5002 48.621V85.5H43.5002ZM84.6212 46.5L49.0607 10.9395C48.7794 10.6583 48.3979 10.5003 48.0002 10.5003C47.6024 10.5003 47.221 10.6583 46.9397 10.9395L11.3792 46.5H6.6212L48.0002 5.121L89.3792 46.5H84.6212Z" fill="white"/>
<path d="M58.5 39C58.5 36.9233 57.8842 34.8932 56.7304 33.1665C55.5767 31.4398 53.9368 30.094 52.0182 29.2992C50.0995 28.5045 47.9883 28.2966 45.9515 28.7017C43.9147 29.1069 42.0438 30.1069 40.5754 31.5754C39.1069 33.0438 38.1069 34.9147 37.7017 36.9515C37.2966 38.9883 37.5045 41.0995 38.2992 43.0182C39.094 44.9368 40.4398 46.5767 42.1665 47.7304C43.8932 48.8842 45.9233 49.5 48 49.5C50.7838 49.4968 53.4526 48.3895 55.4211 46.4211C57.3895 44.4526 58.4968 41.7838 58.5 39ZM40.5 39C40.5 37.5166 40.9398 36.0666 41.764 34.8332C42.5881 33.5998 43.7594 32.6385 45.1298 32.0709C46.5003 31.5032 48.0083 31.3547 49.4632 31.6441C50.918 31.9335 52.2544 32.6478 53.3033 33.6967C54.3522 34.7456 55.0665 36.0819 55.3559 37.5368C55.6453 38.9917 55.4967 40.4997 54.9291 41.8701C54.3614 43.2405 53.4001 44.4119 52.1668 45.236C50.9334 46.0601 49.4833 46.5 48 46.5C46.0116 46.4976 44.1053 45.7067 42.6993 44.3006C41.2933 42.8946 40.5024 40.9884 40.5 39Z" fill="white"/>
<path d="M78 55.5H48C47.6022 55.5 47.2206 55.658 46.9393 55.9393C46.658 56.2206 46.5 56.6022 46.5 57V78C46.5 78.3978 46.658 78.7794 46.9393 79.0607C47.2206 79.342 47.6022 79.5 48 79.5H78C78.3978 79.5 78.7794 79.342 79.0607 79.0607C79.342 78.7794 79.5 78.3978 79.5 78V57C79.5 56.6022 79.342 56.2206 79.0607 55.9393C78.7794 55.658 78.3978 55.5 78 55.5ZM76.5 66H64.5V58.5H76.5V66ZM61.5 58.5V66H49.5V58.5H61.5ZM49.5 69H61.5V76.5H49.5V69ZM64.5 76.5V69H76.5V76.5H64.5Z" fill="white"/>
<path d="M28.5 67.5H25.5V73.5H28.5V67.5Z" fill="white"/>
</svg>
