<svg width="96" height="96" viewBox="0 0 96 96" fill="none" xmlns="http://www.w3.org/2000/svg">
<g clip-path="url(#clip0)">
<path d="M47.9445 0.00442505C46.2238 0.00442505 44.5042 0.0969316 42.7932 0.281344C41.225 0.441529 39.676 0.704231 38.1479 1.023C37.8521 1.08487 37.5562 1.15015 37.2604 1.21842C28.2567 3.26839 20.0352 7.87189 13.582 14.4769C12.9819 15.092 12.3944 15.7253 11.8199 16.3767C-5.61217 36.3893 -3.52016 66.7443 16.4927 84.1764C35.6524 100.865 64.4926 99.7549 82.3123 81.6423C82.9136 81.0272 83.5009 80.3938 84.0744 79.7425C91.7674 70.9816 96.0069 59.7188 96.0001 48.0596C96.0001 21.5192 74.4849 0.00422482 47.9445 0.00442505ZM15.7172 16.8797C15.9703 16.617 16.233 16.3655 16.4909 16.1108C16.7888 15.8176 17.0852 15.5229 17.3895 15.2394C17.657 14.9895 17.9326 14.7492 18.2065 14.5057C18.5156 14.2318 18.8232 13.9579 19.1404 13.6936C19.4191 13.4581 19.7058 13.2323 19.9909 13.0048C20.3113 12.7485 20.6317 12.4922 20.9617 12.2455C21.2532 12.0261 21.5495 11.813 21.8475 11.6048C22.1791 11.3677 22.5122 11.1242 22.8502 10.9032C23.153 10.6981 23.4589 10.4995 23.7665 10.3025C24.1093 10.083 24.4537 9.86679 24.8013 9.66175C25.1142 9.47494 25.4292 9.29112 25.7464 9.11072C26.101 8.90888 26.457 8.71186 26.8148 8.51964C27.1352 8.34884 27.4555 8.18165 27.7759 8.01826C28.1411 7.83405 28.5096 7.65624 28.8796 7.48164C29.1999 7.32946 29.5331 7.17729 29.8631 7.03312C30.2395 6.87294 30.6208 6.71275 31.002 6.55257C31.3336 6.41641 31.6636 6.28346 31.9984 6.15531C32.386 6.00794 32.7785 5.87018 33.1709 5.73242C33.5057 5.61549 33.8405 5.49856 34.1801 5.38803C34.5789 5.25988 34.981 5.14134 35.3847 5.02441C35.7227 4.9267 36.0574 4.82578 36.397 4.73447C36.5268 4.70084 36.6565 4.6736 36.7863 4.63997C32.0448 9.24387 28.5262 14.9577 26.5489 21.2639C22.7469 20.2612 19.0663 18.8447 15.573 17.0399C15.6259 16.9838 15.6708 16.9277 15.7172 16.8797ZM13.4138 19.4586C17.2616 21.5434 21.3419 23.1673 25.5702 24.2962C23.4974 31.5037 22.4093 38.9585 22.336 46.4577H3.12991C3.47891 36.5686 7.09528 27.074 13.4138 19.4586ZM13.4138 76.6605C7.09568 69.045 3.47931 59.5504 3.12991 49.6614H22.336C22.4093 57.1607 23.4972 64.6155 25.5702 71.823C21.3421 72.9523 17.2618 74.5759 13.4138 76.6605ZM36.3874 91.3911C36.0639 91.3094 35.7291 91.2037 35.3959 91.106C34.9906 90.9874 34.5837 90.8689 34.1833 90.7392C33.8453 90.6302 33.5121 90.5133 33.1789 90.3964C32.7849 90.2602 32.3908 90.1208 32.0016 89.9719C31.6684 89.8453 31.34 89.7124 31.01 89.5778C30.6272 89.4176 30.2443 89.2575 29.8647 89.0973C29.5379 88.9531 29.2128 88.8047 28.8892 88.652C28.516 88.4758 28.1443 88.2963 27.7679 88.1105C27.4475 87.9503 27.1272 87.7902 26.8068 87.6156C26.4448 87.4217 26.086 87.2231 25.7271 87.0181C25.4068 86.8403 25.1024 86.6577 24.7933 86.4718C24.4409 86.2604 24.0949 86.0425 23.7489 85.8199C23.4445 85.6261 23.1402 85.429 22.8406 85.2272C22.4994 84.9965 22.1614 84.7563 21.8267 84.516C21.5335 84.3061 21.2404 84.0963 20.952 83.8753C20.6205 83.6254 20.2953 83.3675 19.9717 83.108C19.6882 82.8821 19.4063 82.6579 19.1291 82.4256C18.8088 82.1597 18.4996 81.8826 18.1889 81.607C17.9165 81.3652 17.6426 81.1265 17.3767 80.8798C17.0708 80.5947 16.7744 80.2983 16.4765 80.0052C16.2186 79.7505 15.9559 79.499 15.7028 79.2379C15.6563 79.1883 15.6115 79.137 15.565 79.0889C19.0581 77.2833 22.7387 75.8662 26.5409 74.8633C28.5186 81.1693 32.037 86.8829 36.7783 91.4872C36.6485 91.4536 36.5172 91.4264 36.3874 91.3911ZM46.3429 92.7847C39.4886 91.8108 33.4801 84.657 29.6997 74.0928C35.1652 72.869 40.7426 72.2124 46.3429 72.1337V92.7847ZM46.3429 68.93C40.4021 69.0081 34.4862 69.7137 28.6938 71.0349C26.6824 64.0855 25.6214 56.8956 25.5397 49.6614H46.3429V68.93ZM46.3429 46.4577H25.5397C25.6212 39.2236 26.6822 32.0337 28.6938 25.0843C34.4862 26.4052 40.4023 27.1109 46.3429 27.1891V46.4577ZM46.3429 23.9855C40.7424 23.9074 35.1652 23.2508 29.6997 22.0264C33.4801 11.4622 39.4886 4.30838 46.3429 3.33446V23.9855ZM82.4757 19.4586C88.7938 27.0742 92.4102 36.5687 92.7596 46.4577H73.5535C73.4802 38.9585 72.3923 31.5037 70.3193 24.2962C74.5474 23.1667 78.6277 21.543 82.4757 19.4586ZM59.4892 4.72647C59.8256 4.80976 60.1604 4.91548 60.4936 5.0132C60.8989 5.13173 61.3057 5.25027 61.7062 5.38002C62.0442 5.48894 62.3774 5.60588 62.7106 5.72281C63.1046 5.85897 63.4987 5.99833 63.8879 6.1473C64.2211 6.27385 64.5495 6.4068 64.8795 6.54136C65.2623 6.70154 65.6451 6.86173 66.0248 7.02191C66.3516 7.16608 66.6767 7.31445 67.0003 7.46722C67.3735 7.64343 67.7452 7.82283 68.1216 8.00865C68.442 8.16883 68.7623 8.32902 69.0827 8.50362C69.4447 8.69744 69.8035 8.89607 70.1623 9.10111C70.4827 9.27891 70.7871 9.46152 71.0962 9.64734C71.4486 9.85878 71.7946 10.0766 72.1406 10.2993C72.445 10.4931 72.7493 10.6901 73.0489 10.892C73.3901 11.1226 73.7264 11.3613 74.0612 11.6016C74.356 11.8114 74.6491 12.0229 74.939 12.2423C75.269 12.4906 75.5926 12.7485 75.9178 13.008C76.1997 13.2323 76.4832 13.4565 76.7603 13.6904C77.0807 13.9563 77.3899 14.2334 77.7006 14.5089C77.9729 14.7508 78.2469 14.9895 78.5128 15.2362C78.8187 15.5213 79.1151 15.8176 79.413 16.1108C79.6709 16.3655 79.9336 16.617 80.1867 16.8781C80.2331 16.9277 80.278 16.979 80.3245 17.027C76.8314 18.8327 73.1508 20.2497 69.3486 21.2527C67.3671 14.9458 63.8441 9.23266 59.0984 4.63035C59.2281 4.66399 59.3595 4.69122 59.4892 4.72647ZM49.5466 3.33446C56.4009 4.30838 62.4094 11.4622 66.1898 22.0264C60.7243 23.2502 55.1468 23.9068 49.5466 23.9855V3.33446ZM49.5466 27.1891C55.4874 27.1111 61.4033 26.4054 67.1957 25.0843C69.207 32.0337 70.2681 39.2236 70.3498 46.4577H49.5466V27.1891ZM49.5466 49.6614H70.3498C70.2683 56.8956 69.2072 64.0855 67.1957 71.0349C61.4033 69.7139 55.4874 69.0083 49.5466 68.93V49.6614ZM49.5466 92.7847V72.1337C55.147 72.2118 60.7243 72.8684 66.1898 74.0928C62.4094 84.657 56.4009 91.8108 49.5466 92.7847ZM80.1723 79.2395C79.9192 79.5006 79.6581 79.7521 79.4002 80.0068C79.1022 80.2999 78.8043 80.5963 78.4984 80.8814C78.2324 81.1297 77.9585 81.362 77.6862 81.6102C77.3755 81.8858 77.0663 82.1613 76.7491 82.4272C76.4688 82.6611 76.1837 82.8869 75.8986 83.1144C75.5782 83.3707 75.2578 83.627 74.9278 83.8736C74.6363 84.0931 74.34 84.3061 74.042 84.5144C73.7104 84.7515 73.3772 84.9949 73.0393 85.216C72.7365 85.421 72.4306 85.6197 72.123 85.8151C71.7802 86.0361 71.4348 86.2498 71.0866 86.4558C70.7662 86.6432 70.4603 86.8259 70.1447 87.0069C69.7901 87.2087 69.4335 87.4057 69.0747 87.5979C68.7543 87.7687 68.434 87.9359 68.1136 88.0993C67.7484 88.2835 67.3799 88.4613 67.0099 88.6359C66.6895 88.7881 66.3564 88.9403 66.0264 89.0845C65.6499 89.2446 65.2687 89.4048 64.8875 89.565C64.5559 89.6996 64.2259 89.8341 63.8927 89.9607C63.5019 90.1096 63.1094 90.249 62.7154 90.3852C62.3822 90.5021 62.049 90.619 61.711 90.728C61.3105 90.8577 60.9101 90.9762 60.5016 91.0932C60.1668 91.1925 59.8304 91.2918 59.4924 91.3831C59.3627 91.4167 59.2329 91.444 59.1032 91.4776C63.8447 86.8737 67.3633 81.1599 69.3406 74.8537C73.1426 75.8564 76.8232 77.2729 80.3164 79.0777C80.2636 79.1354 80.2187 79.1915 80.1723 79.2395ZM82.4757 76.6605C78.6279 74.5757 74.5476 72.9519 70.3193 71.823C72.3921 64.6155 73.4802 57.1607 73.5535 49.6614H92.7596C92.4108 59.5504 88.7942 69.0452 82.4757 76.6605Z" fill="white"/>
</g>
<defs>
<clipPath id="clip0">
<rect width="96" height="96" fill="white"/>
</clipPath>
</defs>
</svg>
