<svg width="40" height="40" viewBox="0 0 40 40" fill="none" xmlns="http://www.w3.org/2000/svg">
<path d="M29.325 35.01H29.2784C22.8756 34.8524 16.7655 32.2959 12.1584 27.8467C7.70758 23.2438 5.14953 17.136 4.99152 10.7351C4.98209 9.83838 5.33415 8.97565 5.96838 8.34172L10.4917 3.82172C11.1425 3.17108 12.1975 3.17108 12.8484 3.82172L19.515 10.4884C20.1657 11.1392 20.1657 12.1942 19.515 12.8451L16.855 15.5C17.3484 17.3433 18.2572 19.049 19.5117 20.4867C20.9468 21.7417 22.6504 22.6511 24.4917 23.1451L27.1584 20.4884C27.8092 19.8377 28.8642 19.8377 29.515 20.4884L36.1817 27.155C36.8323 27.8059 36.8323 28.8609 36.1817 29.5117L31.6584 34.0334C31.0416 34.6566 30.2018 35.0081 29.325 35.01ZM11.6667 7.35838H11.6584L8.32504 10.6984C8.46095 16.2295 10.6689 21.5079 14.5117 25.4884C18.4924 29.3298 23.7698 31.5376 29.3 31.675L32.645 28.3334L28.325 24.025L26.17 26.1784C25.8618 26.4901 25.4418 26.6659 25.0034 26.6667C24.8863 26.6668 24.7695 26.6545 24.655 26.63C21.8778 26.0157 19.299 24.7143 17.155 22.845C15.2858 20.7011 13.9844 18.1223 13.37 15.345C13.2541 14.793 13.4254 14.2198 13.825 13.8217L15.9784 11.6667L11.6667 7.35838Z" fill="white"/>
</svg>
