<svg width="26" height="26" viewBox="0 0 26 26" fill="none" xmlns="http://www.w3.org/2000/svg">
<g clip-path="url(#clip0)">
<path d="M24.9167 12.3333H24.8082C24.3063 9.86098 22.1204 8 19.5 8C17.5727 8 15.8806 9.00689 14.9205 10.5231C14.3602 10.2723 13.7448 10.1663 13.0003 10.1663C12.2564 10.1663 11.6407 10.2726 11.0799 10.5238C10.1199 9.00715 8.42761 8 6.50005 8C3.87969 8 1.69381 9.86103 1.19184 12.3333H1.08337C0.485012 12.3333 0 12.8183 0 13.4166C0 14.0149 0.485012 14.5 1.08332 14.5H1.19179C1.69371 16.9723 3.87959 18.8333 6.5 18.8333C9.49137 18.8333 11.9167 16.408 11.9167 13.4166C11.9167 13.1253 11.8934 12.8395 11.8491 12.5606C12.1566 12.3914 12.4918 12.3329 13.0002 12.3329C13.5095 12.3329 13.8443 12.391 14.151 12.5598C14.1066 12.8389 14.0833 13.125 14.0833 13.4166C14.0833 16.408 16.5086 18.8333 19.5 18.8333C22.1204 18.8333 24.3062 16.9722 24.8082 14.5H24.9167C25.515 14.5 26 14.0149 26 13.4166C26 12.8183 25.515 12.3333 24.9167 12.3333ZM6.5 16.6666C4.70524 16.6666 3.25 15.2114 3.25 13.4166C3.25 11.6219 4.70524 10.1666 6.5 10.1666C8.29476 10.1666 9.75 11.6219 9.75 13.4166C9.75 15.2114 8.29476 16.6666 6.5 16.6666ZM19.5 16.6666C17.7052 16.6666 16.25 15.2114 16.25 13.4166C16.25 11.6219 17.7052 10.1666 19.5 10.1666C21.2948 10.1666 22.75 11.6219 22.75 13.4166C22.75 15.2114 21.2948 16.6666 19.5 16.6666Z" fill="#C22137"/>
</g>
<defs>
<clipPath id="clip0">
<rect width="26" height="26" fill="white"/>
</clipPath>
</defs>
</svg>
