<svg width="96" height="96" viewBox="0 0 96 96" fill="none" xmlns="http://www.w3.org/2000/svg">
<path d="M48 96C74.5097 96 96 74.5097 96 48C96 21.4903 74.5097 0 48 0C21.4903 0 0 21.4903 0 48C0 74.5097 21.4903 96 48 96Z" fill="#0066B3"/>
<path d="M52.1582 87.9972C49.726 88.0411 47.3118 87.5738 45.0717 86.6256C44.8431 86.6256 39.7377 84.1491 34.0228 80.682C28.3078 77.215 23.774 73.786 23.5835 73.6336C21.9078 72.2506 20.5002 70.5718 19.4306 68.6807L22.7072 66.7376C23.5617 68.194 24.6716 69.4846 25.9837 70.5475C25.9837 70.5475 30.5176 74.0146 36.0801 77.3674C41.6427 80.7201 46.7099 83.0823 46.7861 83.1204C50.3055 84.473 54.2014 84.473 57.7207 83.1204C57.7207 83.1204 62.8642 80.7201 68.4267 77.3674C73.9893 74.0146 78.485 70.5856 78.5231 70.5475C81.4854 67.945 83.4405 64.3854 84.0476 60.4892C84.0476 60.4892 84.6572 54.6219 84.6572 47.9164C84.6572 41.2108 84.0857 35.3816 84.0476 35.3435C83.4374 31.4484 81.4829 27.8898 78.5231 25.2852C78.5231 25.2852 73.9893 21.8181 68.4267 18.4653C62.8642 15.1126 57.5302 12.8266 57.5302 12.8266C54.0109 11.474 50.115 11.474 46.5956 12.8266C46.5956 12.8266 41.4522 15.2269 35.9277 18.5796C30.4033 21.9324 25.9456 25.3233 25.9075 25.3614C24.5966 26.4255 23.4868 27.7158 22.631 29.1713L19.4306 27.3045C20.5214 25.4058 21.9554 23.7263 23.6597 22.3515C23.6597 22.3515 28.3459 18.7701 34.099 15.3031C39.852 11.836 44.9574 9.47383 45.1479 9.35953C49.6852 7.54682 54.7455 7.54682 59.2828 9.35953C59.5114 9.35953 64.5787 11.836 70.3317 15.3031C76.0848 18.7701 80.39 22.1991 80.7329 22.3515C84.5287 25.5923 87.0196 30.1003 87.7432 35.0387C87.7432 35.2673 88.3528 41.0965 88.3528 47.9926C88.3528 54.8886 87.7813 60.7178 87.7432 60.9464C87.0196 65.8848 84.5287 70.3928 80.7329 73.6336C80.7329 73.6336 76.0467 77.215 70.2936 80.682C64.5406 84.1491 59.4352 86.5113 59.2447 86.6256C57.0046 87.5738 54.5903 88.0411 52.1582 87.9972Z" fill="white"/>
<path d="M8 36.5627H23.2399V40.3726H11.81V59.4224H8V36.5627Z" fill="white"/>
<path d="M38.4797 40.3726C39.9868 40.3726 41.46 40.8195 42.7131 41.6568C43.9662 42.4941 44.9429 43.6842 45.5196 45.0765C46.0963 46.4689 46.2472 48.001 45.9532 49.4791C45.6592 50.9572 44.9335 52.315 43.8678 53.3806C42.8021 54.4463 41.4444 55.172 39.9663 55.4661C38.4882 55.7601 36.956 55.6092 35.5637 55.0324C34.1713 54.4557 32.9813 53.479 32.144 52.226C31.3067 50.9729 30.8598 49.4996 30.8598 47.9925C30.8598 45.9716 31.6626 44.0335 33.0916 42.6044C34.5206 41.1754 36.4588 40.3726 38.4797 40.3726ZM38.4797 36.5627C36.2191 36.5627 34.0092 37.233 32.1296 38.4889C30.25 39.7449 28.785 41.53 27.9199 43.6185C27.0548 45.7071 26.8284 48.0052 27.2694 50.2224C27.7105 52.4396 28.799 54.4762 30.3975 56.0747C31.996 57.6732 34.0327 58.7618 36.2498 59.2028C38.467 59.6438 40.7652 59.4175 42.8537 58.5524C44.9423 57.6873 46.7274 56.2223 47.9833 54.3426C49.2392 52.463 49.9096 50.2532 49.9096 47.9925C49.9096 44.9612 48.7054 42.0539 46.5619 39.9104C44.4183 37.7669 41.5111 36.5627 38.4797 36.5627Z" fill="white"/>
<path d="M65.1498 59.4224C63.3371 59.4183 61.5514 58.9832 59.9401 58.1529C58.3287 57.3226 56.938 56.121 55.8826 54.6472C54.8272 53.1735 54.1375 51.4698 53.8704 49.6769C53.6033 47.8841 53.7664 46.0533 54.3463 44.3359C54.9262 42.6185 55.9063 41.0637 57.2056 39.7997C58.5049 38.5358 60.0862 37.599 61.8189 37.0666C63.5517 36.5343 65.3862 36.4217 67.171 36.7382C68.9558 37.0547 70.6398 37.7911 72.0839 38.8867L69.7598 41.8966C68.4304 40.8995 66.8115 40.3643 65.1498 40.3726C63.9246 40.3738 62.7177 40.6704 61.6316 41.2373C60.5454 41.8041 59.6119 42.6246 58.9103 43.629C58.2087 44.6334 57.7597 45.7922 57.6012 47.0071C57.4428 48.222 57.5796 49.4572 58.0002 50.608C58.4207 51.7587 59.1125 52.7911 60.017 53.6176C60.9214 54.4441 62.0118 55.0403 63.1957 55.3557C64.3796 55.671 65.6221 55.6963 66.8179 55.4293C68.0136 55.1622 69.1273 54.6108 70.0646 53.8218L72.503 56.7554C70.4419 58.4815 67.8382 59.4259 65.1498 59.4224Z" fill="white"/>
</svg>
