<svg width="40" height="40" viewBox="0 0 40 40" fill="none" xmlns="http://www.w3.org/2000/svg">
<g clip-path="url(#clip0)">
<path d="M38.3334 18.9744H38.1665C37.3943 15.1708 34.0314 12.3077 30 12.3077C27.0349 12.3077 24.4317 13.8568 22.9547 16.1895C22.0927 15.8035 21.1458 15.6406 20.0004 15.6406C18.856 15.6406 17.9088 15.8041 17.046 16.1905C15.5691 13.8572 12.9655 12.3077 10.0001 12.3077C5.96875 12.3077 2.60586 15.1709 1.83359 18.9744H1.66672C0.746172 18.9744 0 19.7206 0 20.641C0 21.5615 0.746172 22.3077 1.66664 22.3077H1.83352C2.6057 26.1113 5.96859 28.9743 10 28.9743C14.6021 28.9743 18.3334 25.2431 18.3334 20.641C18.3334 20.1927 18.2975 19.7531 18.2294 19.324C18.7024 19.0638 19.2182 18.9738 20.0003 18.9738C20.7838 18.9738 21.2989 19.0631 21.7708 19.3228C21.7025 19.7522 21.6666 20.1924 21.6666 20.641C21.6666 25.2431 25.3978 28.9743 30 28.9743C34.0313 28.9743 37.3942 26.1112 38.1665 22.3077H38.3334C39.2538 22.3077 40 21.5615 40 20.641C40 19.7206 39.2538 18.9744 38.3334 18.9744ZM10 25.641C7.23883 25.641 5 23.4022 5 20.641C5 17.8799 7.23883 15.641 10 15.641C12.7612 15.641 15 17.8799 15 20.641C15 23.4022 12.7612 25.641 10 25.641ZM30 25.641C27.2388 25.641 25 23.4022 25 20.641C25 17.8799 27.2388 15.641 30 15.641C32.7612 15.641 35 17.8799 35 20.641C35 23.4022 32.7612 25.641 30 25.641Z" fill="white"/>
</g>
<defs>
<clipPath id="clip0">
<rect width="40" height="40" fill="white"/>
</clipPath>
</defs>
</svg>
